HIERARCHY
ROOT Hips
{
	OFFSET	0.000000	0.000000	0.000000
	CHANNELS 6 Xposition Yposition Zposition Zrotation Xrotation Yrotation
	JOINT LeftHip
	{
		OFFSET	4.740440	-3.195970	-0.322709
		CHANNELS 3 Zrotation Xrotation Yrotation
		JOINT LeftKnee
		{
			OFFSET	-1.605680	-15.592300	1.005510
			CHANNELS 3 Zrotation Xrotation Yrotation
			JOINT LeftAnkle
			{
				OFFSET	-0.632401	-16.421000	-1.413730
				CHANNELS 3 Zrotation Xrotation Yrotation
				End Site
				{
					OFFSET	0.008423	-3.021750	-1.660875
				}
			}
		}
	}
	JOINT RightHip
	{
		OFFSET	-4.740440	-3.195970	-0.322709
		CHANNELS 3 Zrotation Xrotation Yrotation
		JOINT RightKnee
		{
			OFFSET	1.605680	-15.592300	1.005510
			CHANNELS 3 Zrotation Xrotation Yrotation
			JOINT RightAnkle
			{
				OFFSET	0.632401	-16.421000	-1.413730
				CHANNELS 3 Zrotation Xrotation Yrotation
				End Site
				{
					OFFSET	-0.008423	-3.021750	-1.660875
				}
			}
		}
	}
	JOINT Chest
	{
		OFFSET	0.000000	3.468200	0.078401
		CHANNELS 3 Zrotation Xrotation Yrotation
		JOINT LeftCollar
		{
			OFFSET	3.857650	15.070700	-0.011583
			CHANNELS 3 Zrotation Xrotation Yrotation
			JOINT LeftShoulder
			{
				OFFSET	3.979720	-1.940530	-0.165223
				CHANNELS 3 Zrotation Xrotation Yrotation
				JOINT LeftElbow
				{
					OFFSET	0.615844	-10.986600	-0.673886
					CHANNELS 3 Zrotation Xrotation Yrotation
					JOINT LeftWrist
					{
						OFFSET	0.826843	-10.854500	1.034220
						CHANNELS 3 Zrotation Xrotation Yrotation
						End Site
						{
							OFFSET	-1.679080	-8.456540	0.936217
						}
					}
				}
			}
		}
		JOINT RightCollar
		{
			OFFSET	-3.857650	15.070700	-0.011583
			CHANNELS 3 Zrotation Xrotation Yrotation
			JOINT RightShoulder
			{
				OFFSET	-3.979720	-1.940530	-0.165223
				CHANNELS 3 Zrotation Xrotation Yrotation
				JOINT RightElbow
				{
					OFFSET	-0.615845	-10.986600	-0.673886
					CHANNELS 3 Zrotation Xrotation Yrotation
					JOINT RightWrist
					{
						OFFSET	-0.826843	-10.854500	1.034220
						CHANNELS 3 Zrotation Xrotation Yrotation
						End Site
						{
							OFFSET	1.679080	-8.456540	0.936217
						}
					}
				}
			}
		}
		JOINT Neck
		{
			OFFSET	0.000000	15.101400	0.055730
			CHANNELS 3 Zrotation Xrotation Yrotation
			JOINT Head
			{
				OFFSET	0.000000	4.185120	1.488260
				CHANNELS 3 Zrotation Xrotation Yrotation
				End Site
				{
					OFFSET	0.000000	7.773420	-0.106016
				}
			}
		}
	}
}
MOTION
Frames:     13
Frame Time: 0.016667
1.662780	35.907784	-3.861808	7.615654	-5.744166	6.221316	17.564821	0.494456	6.253406	-13.221822	22.390312	11.200134	-11.073249	-10.968571	2.583591	-20.464832	-19.346752	-9.714360	7.111299	40.315327	1.568261	2.446795	-13.236036	0.604203	-1.220837	11.490010	-2.601221	-5.015344	1.124173	-4.626525	20.072714	-8.776841	13.530404	48.609207	-133.453918	50.041542	5.784082	-6.507921	6.107988	-2.902419	-5.388669	6.262370	-5.950715	-16.594572	-1.032854	-80.018852	-132.591827	-79.405396	-25.826824	-8.681724	-3.511127	-8.569639	0.007379	-0.863798	-3.011742	-6.195807	-2.077958	
1.451494	35.895222	-3.772132	7.855294	-5.670506	5.548208	17.594393	0.742359	5.496922	-13.386971	22.080240	11.978455	-11.619209	-11.011856	3.052850	-20.376432	-19.680674	-9.929799	7.030272	40.704384	2.152920	1.881197	-13.457329	0.721770	-0.844119	11.773471	-3.277981	-5.231340	0.606301	-4.149654	21.525280	-8.461346	13.712190	44.248047	-137.424210	45.162636	5.644545	-4.758974	7.545752	-3.081062	-6.717527	7.289506	-4.101115	-19.383501	-0.545193	-73.296257	-133.945465	-71.089043	-24.183846	-10.666547	-1.987218	-9.271858	-0.571540	-0.125787	-3.654324	-6.131069	-1.414791	
1.275604	35.880917	-3.673901	8.095727	-5.532450	4.978270	17.392424	0.891304	5.653394	-13.382572	21.934622	12.191939	-11.809364	-11.030376	3.203205	-20.395948	-20.016975	-10.157681	7.018445	41.091537	2.613676	1.372906	-13.706948	0.846691	-0.962072	11.748767	-3.080821	-4.907854	0.350693	-4.429145	21.550112	-8.062673	13.871255	43.176888	-138.472626	43.900364	4.155653	-5.712125	7.316936	-3.144226	-7.109118	7.593347	-3.374238	-20.272263	-0.285957	-71.488464	-134.348358	-68.632690	-23.650667	-11.278884	-1.526084	-9.388462	-0.987163	-0.269434	-3.917924	-5.897737	-0.824183	
1.130818	35.863590	-3.584612	8.305422	-5.498542	4.492823	17.340693	1.296222	4.883060	-13.289671	21.405197	12.918295	-12.426075	-10.961226	3.491739	-20.437284	-20.214607	-10.355940	7.042244	41.454739	3.066062	0.947922	-13.949377	0.919950	-0.545643	11.882236	-3.536097	-5.046956	-0.002404	-4.115295	22.151079	-7.133836	12.852767	40.852428	-140.868164	41.135357	4.817319	-4.645513	7.487867	-3.348813	-7.997483	8.320772	-1.108143	-22.737633	0.752479	-67.113518	-135.338730	-62.280670	-22.400665	-12.756468	-0.602850	-9.825829	-1.740666	0.021723	-4.733232	-5.459591	0.108738	
0.990194	35.845364	-3.495422	8.531858	-5.414677	4.099382	17.156731	1.445783	4.943552	-13.225273	21.202000	13.128001	-12.633262	-10.889337	3.562210	-20.555435	-20.435463	-10.501108	7.219495	41.822720	3.330535	0.491006	-14.206966	0.948912	-0.612829	11.843067	-3.382222	-4.797651	-0.144039	-4.279277	21.918400	-6.062317	11.941611	39.697140	-141.829910	39.539978	4.962158	-4.554577	6.933618	-3.442028	-8.251719	8.510084	-0.365550	-23.502436	1.165522	-65.999245	-135.607986	-60.651356	-22.155350	-13.135450	-0.500912	-9.947693	-1.966790	0.006833	-5.031013	-5.372668	0.483222	
0.843564	35.820400	-3.405134	8.748877	-5.305144	3.773248	16.911896	1.920784	4.391102	-12.777020	20.429668	13.717948	-13.289641	-10.636515	3.613795	-20.632839	-20.698423	-10.553056	7.403103	42.234528	3.474037	0.111169	-14.494373	0.944820	-0.263387	11.878518	-3.558294	-4.992053	-0.382796	-4.167084	20.948496	-5.447694	11.544153	39.833881	-142.331299	39.196365	5.292151	-4.473190	6.220215	-3.655146	-8.820183	8.873620	1.831707	-25.629053	2.421269	-63.702847	-136.354904	-57.147717	-21.752245	-15.588604	-0.745367	-10.084675	-2.593432	-0.044247	-5.918077	-5.193927	1.401640	
0.717784	35.800987	-3.302946	8.995741	-5.185617	3.556633	16.635632	2.072801	4.446184	-12.596616	20.141315	13.843152	-13.471016	-10.538137	3.608086	-20.766243	-20.891134	-10.625727	7.537051	42.620819	3.585622	-0.221336	-14.816965	0.928253	-0.269658	11.928276	-3.350924	-4.880678	-0.559606	-4.251040	19.509068	-5.076174	11.091573	40.332024	-142.472076	38.791088	6.094074	-4.303917	5.774550	-3.798440	-9.050253	8.847292	2.433712	-26.263565	2.857553	-60.122978	-137.694992	-53.517105	-21.165644	-11.531328	-0.442283	-9.956261	-3.159461	-0.235585	-6.375431	-4.894124	1.740511	
0.593941	35.773766	-3.217823	9.194161	-5.052613	3.439594	16.451574	2.618103	4.322845	-11.989457	19.274780	14.093355	-14.102179	-10.144196	3.379916	-20.864191	-21.103996	-10.722936	7.666883	43.020607	3.646545	-0.482487	-15.123268	0.891261	-0.236638	11.953147	-2.886273	-4.840666	-0.702501	-4.614460	17.664825	-4.821193	10.619405	40.452782	-141.373901	39.509270	6.166686	-4.693210	3.660673	-3.746895	-9.234672	8.654573	3.889587	-27.854929	4.053744	-61.633492	-136.879333	-54.176800	-20.951921	-14.339289	-0.826158	-9.746549	-3.714245	-0.611041	-6.942466	-4.732533	2.144505	
0.494927	35.737000	-3.134938	9.307331	-4.985652	3.421503	16.354378	2.790455	4.363763	-11.764839	18.983978	14.192479	-14.368890	-9.902733	3.152573	-20.915449	-21.226614	-10.794169	7.835351	43.438950	3.601662	-0.731686	-15.465109	0.841634	-0.240415	11.968515	-2.476332	-4.741478	-0.743475	-4.801113	15.526533	-4.884861	10.002815	40.797287	-140.473923	39.332466	6.614318	-4.704003	2.642287	-3.820882	-9.260105	8.323564	4.321494	-28.277582	4.404258	-59.240730	-137.656601	-51.876434	-19.892342	-14.661995	-0.399919	-9.661766	-3.914122	-0.954886	-7.136130	-4.689414	2.201981	
0.393928	35.721092	-3.047220	9.648501	-4.686481	3.575747	16.125494	3.135347	4.484513	-11.135311	18.173613	14.701080	-15.351788	-8.948116	2.077419	-21.332373	-21.462894	-11.062615	8.061580	43.811043	3.469563	-0.897137	-15.779564	0.843270	-0.170097	12.111529	-1.760656	-5.022133	-0.916667	-5.406106	13.273090	-5.453781	9.311430	41.251732	-139.464676	39.276230	7.016691	-4.814928	2.193736	-4.078877	-9.437710	7.645128	5.534266	-29.195192	5.240513	-59.495102	-137.512192	-51.480659	-19.101843	-14.869450	0.159710	-9.556101	-4.492181	-1.602921	-7.473906	-4.803554	2.153619	
0.362373	35.706509	-3.012911	9.762951	-4.543600	3.697600	16.078871	3.188492	4.510756	-10.933266	17.896387	14.964007	-15.739632	-8.595331	1.597296	-21.542015	-21.572588	-11.248222	8.195871	44.007324	3.392176	-0.970348	-15.930306	0.848788	-0.123935	12.160716	-1.742991	-5.145560	-0.955034	-5.347703	11.242127	-6.104652	8.748610	41.462307	-138.556000	39.125065	6.402932	-4.726806	1.553148	-4.127635	-9.506587	7.605202	5.865761	-29.403421	5.435367	-58.714149	-137.898026	-50.974190	-18.479805	-14.974162	0.649089	-9.381104	-4.832181	-1.403225	-7.470129	-5.061448	2.010723	
0.265124	35.677303	-2.908485	10.185720	-3.903867	4.214625	15.939191	3.188112	4.754423	-10.522134	16.944086	15.543188	-16.706129	-7.519048	0.151714	-22.338186	-21.986511	-12.045226	8.557881	44.519848	3.256179	-1.194960	-16.346918	0.799667	0.002383	12.193030	-1.956193	-5.699424	-1.118737	-4.948235	9.435126	-7.232424	7.683615	41.464691	-137.837997	38.902283	7.697538	-5.115884	1.565890	-4.335377	-9.702332	7.627995	7.309043	-29.752787	6.277065	-59.362247	-138.098328	-50.713493	-18.044802	-14.995584	0.845457	-9.593060	-5.626931	-1.431878	-7.537979	-5.154467	1.722502	
0.222771	35.672134	-2.881062	10.349640	-3.617488	4.451473	15.884983	3.156429	4.936961	-10.383837	16.563517	15.540042	-16.987406	-7.176750	-0.283755	-22.666679	-22.155418	-12.414494	8.698219	44.653374	3.219358	-1.251427	-16.428373	0.774539	0.026400	12.174533	-2.037710	-5.878678	-1.231301	-4.873586	8.513148	-7.671683	7.223209	40.432064	-137.441208	38.507210	7.183355	-4.892054	0.812543	-4.421363	-9.799680	7.573060	8.067186	-29.609680	6.855665	-59.499321	-138.215256	-50.374321	-17.898504	-14.973925	0.868701	-9.674536	-5.899145	-1.403245	-7.423703	-5.441855	1.641645	
